# xmcd CD database file
#
# Track frame offsets:
#	182
#	16372
#	43680
#	60592
#
# Disc length: 1001 seconds
#
# Revision: 0
# Processed by: cddbd v1.5.2PL0 Copyright (c) Steve Scherf et al.
# Submitted via: CDex 1.51
#
DISCID=2b03e704
DTITLE=Ruper Ordorika - Ruper Ordorika and Mugalaris
DYEAR=1992
DGENRE=Euskal Herriko Rock
TTITLE0=Agurraren Lezioa
TTITLE1=37 Galdera
TTITLE2=Geldirik Ez Egon
TTITLE3=Begira Egiezu
EXTD=YEAR: 1992
EXTT0=
EXTT1=
EXTT2=
EXTT3=
PLAYORDER=
